<svg xmlns="http://www.w3.org/2000/svg" viewBox="0 0 1000 1250" version="1.1" x="0px" y="0px"><path fill="#000000" opacity="1.00" d=" M 468.57 41.87 C 555.61 35.81 644.30 55.21 720.71 97.37 C 745.64 110.45 768.40 127.14 790.65 144.28 C 802.34 154.20 813.70 164.52 824.76 175.13 C 837.17 188.47 849.26 202.12 860.84 216.18 C 870.93 228.04 879.22 241.27 887.79 254.23 C 897.90 270.17 907.04 286.71 915.13 303.76 C 922.72 317.83 927.72 333.07 933.00 348.11 C 943.28 377.86 951.60 408.46 955.17 439.81 C 957.56 456.75 959.06 473.82 959.06 490.95 C 960.14 519.80 957.18 548.67 952.62 577.13 C 950.02 592.38 947.01 607.59 942.61 622.43 C 939.47 632.91 936.68 643.50 932.94 653.79 C 925.26 674.20 916.73 694.33 906.56 713.64 C 899.53 728.35 890.75 742.11 881.48 755.49 C 869.50 773.27 856.35 790.25 842.32 806.46 C 830.79 819.86 817.62 831.68 804.80 843.81 C 792.50 855.38 778.65 865.11 765.10 875.14 C 750.33 886.07 734.33 895.20 718.32 904.17 C 704.75 911.85 690.58 918.46 676.09 924.23 C 655.88 932.48 635.14 939.48 613.98 944.88 C 599.06 948.87 583.91 952.13 568.53 953.78 C 553.37 955.34 538.28 957.71 523.05 958.56 C 511.04 959.02 499.00 959.14 486.98 959.05 C 469.96 958.44 453.07 955.99 436.22 953.68 C 414.52 950.60 392.89 946.80 371.61 941.52 C 358.57 938.33 346.34 932.67 333.71 928.23 C 316.65 922.09 300.46 913.87 284.38 905.58 C 267.82 896.93 252.06 886.88 236.54 876.51 C 207.41 856.19 181.28 831.83 157.05 805.94 C 146.63 794.87 137.80 782.47 128.48 770.50 C 120.83 760.61 114.50 749.80 107.76 739.30 C 99.12 726.08 92.11 711.91 85.47 697.61 C 76.36 678.00 68.32 657.89 61.34 637.43 C 57.88 627.11 55.53 616.49 53.00 605.93 C 47.91 585.95 45.17 565.49 42.57 545.07 C 41.01 532.11 41.09 519.04 40.76 506.01 C 40.43 491.67 40.72 477.30 42.09 463.02 C 43.89 444.84 45.94 426.64 49.73 408.75 C 55.52 380.76 63.90 353.33 74.79 326.90 C 79.96 313.99 84.99 300.97 91.85 288.84 C 96.23 281.15 100.50 273.40 104.75 265.64 C 109.46 257.00 115.29 249.05 120.87 240.97 C 133.23 223.20 146.59 206.12 161.03 189.99 C 182.05 166.93 205.80 146.52 230.61 127.67 C 243.34 118.81 256.57 110.70 269.94 102.87 C 286.47 93.38 303.18 84.03 320.99 77.13 C 343.43 67.08 367.18 60.45 390.79 53.78 C 398.45 52.06 406.01 49.80 413.83 48.81 C 431.98 45.84 450.18 42.85 468.57 41.87 M 469.55 61.85 C 446.48 63.49 423.58 67.16 400.97 71.98 C 385.13 76.15 369.55 81.23 353.90 86.09 C 340.31 89.87 327.59 96.13 314.60 101.55 C 289.86 113.68 266.04 127.72 243.24 143.18 C 227.93 154.77 213.01 166.92 198.99 180.04 C 177.19 200.08 158.19 222.96 141.02 247.03 C 134.06 256.87 126.89 266.60 121.15 277.23 C 117.16 284.53 113.12 291.80 109.02 299.04 C 101.83 311.85 96.83 325.70 91.33 339.27 C 77.19 374.77 67.54 412.12 63.50 450.13 C 61.37 467.35 60.25 484.70 60.64 502.06 C 60.97 514.37 60.80 526.72 62.00 538.99 C 64.58 561.85 67.96 584.67 73.76 606.96 C 78.27 628.23 86.23 648.54 94.48 668.60 C 102.15 686.44 110.00 704.30 119.93 721.03 C 128.39 734.49 136.43 748.26 146.20 760.84 C 154.93 772.04 163.22 783.62 173.08 793.88 C 199.96 822.27 229.06 849.02 262.45 869.63 C 278.67 880.22 295.79 889.34 313.23 897.77 C 323.73 903.00 334.63 907.38 345.66 911.38 C 356.00 915.10 366.08 919.65 376.79 922.26 C 395.31 926.88 414.13 930.18 432.98 933.08 C 449.31 935.39 465.65 937.79 482.12 938.88 C 493.73 939.44 505.36 939.01 516.98 938.83 C 533.39 938.36 549.61 935.67 565.92 933.99 C 584.73 932.03 603.11 927.36 621.27 922.22 C 655.02 912.31 688.04 899.27 718.34 881.24 C 738.22 870.43 756.51 857.05 774.45 843.32 C 787.06 833.76 798.28 822.54 809.74 811.67 C 824.54 797.69 837.34 781.79 849.70 765.66 C 860.71 750.82 871.35 735.66 880.77 719.76 C 891.19 700.69 900.82 681.16 908.74 660.91 C 913.68 649.23 917.68 637.19 921.08 624.98 C 931.12 592.59 936.13 558.85 938.63 525.10 C 939.78 510.40 939.21 495.65 938.90 480.93 C 938.48 463.47 935.94 446.16 933.52 428.89 C 928.02 393.83 916.68 360.00 904.05 326.95 C 896.07 309.67 887.66 292.54 877.86 276.20 C 870.40 263.54 862.09 251.40 853.71 239.34 C 845.59 228.53 836.67 218.34 827.77 208.18 C 820.46 200.14 813.59 191.66 805.51 184.38 C 792.25 171.95 778.85 159.58 763.96 149.10 C 680.71 85.64 573.90 54.30 469.55 61.85 Z"/><path fill="#000000" opacity="1.00" d=" M 466.59 76.83 C 483.03 75.97 499.51 75.12 515.98 75.88 C 616.58 79.42 715.56 120.10 789.03 189.00 C 800.73 199.59 811.70 210.96 821.90 222.99 C 844.62 249.23 864.22 278.22 879.63 309.33 C 887.23 324.54 894.16 340.09 900.09 356.02 C 905.63 372.33 910.87 388.78 914.57 405.61 C 916.62 415.37 919.47 424.97 920.56 434.91 C 922.87 454.20 924.35 473.59 925.03 493.01 C 925.46 511.35 925.87 529.83 923.01 548.02 C 919.31 576.44 913.64 604.65 904.98 631.99 C 901.21 643.33 896.76 654.43 892.69 665.66 C 888.90 676.28 883.24 686.05 877.97 695.98 C 866.34 717.23 853.98 738.15 839.71 757.76 C 832.47 767.71 823.98 776.64 816.13 786.10 C 807.80 796.07 798.15 804.80 788.67 813.65 C 773.25 828.04 756.54 841.00 739.43 853.31 C 719.28 866.53 697.92 877.86 676.15 888.17 C 662.86 894.20 649.62 900.48 635.67 904.86 C 610.52 912.36 585.00 918.88 558.93 922.19 C 520.88 928.09 482.06 927.15 443.95 922.41 C 429.49 921.02 415.13 918.63 401.08 914.95 C 367.21 906.98 334.36 894.65 303.55 878.50 C 290.86 871.66 277.82 865.32 266.05 856.94 C 242.19 840.18 219.75 821.47 198.33 801.72 C 190.38 794.59 183.95 786.02 176.85 778.10 C 166.14 765.99 156.74 752.82 147.24 739.76 C 137.92 725.99 130.06 711.29 122.28 696.62 C 113.41 679.30 104.69 661.78 98.79 643.19 C 90.07 619.22 84.17 594.32 79.66 569.24 C 76.75 548.75 75.27 528.07 74.38 507.40 C 73.81 496.90 74.64 486.41 75.15 475.94 C 76.85 449.52 80.31 423.11 87.41 397.56 C 92.41 379.36 97.23 361.02 104.58 343.60 C 123.32 296.87 150.26 253.40 184.02 216.03 C 194.10 205.46 204.11 194.77 215.02 185.03 C 247.63 155.86 284.57 131.32 324.55 113.47 C 369.25 93.00 417.62 80.84 466.59 76.83 M 395.28 109.33 C 398.42 113.92 401.59 118.54 405.31 122.68 C 411.34 127.70 418.11 131.75 424.45 136.37 C 426.12 133.44 427.05 130.03 429.40 127.53 C 433.25 123.60 436.76 119.12 441.84 116.71 C 455.15 108.43 472.24 107.97 486.70 113.37 C 489.53 114.83 491.43 117.78 491.73 120.94 C 492.26 124.84 493.57 129.46 490.76 132.83 C 486.19 138.20 481.45 143.48 476.04 148.04 C 473.02 150.70 470.39 153.99 466.42 155.29 C 469.89 157.47 473.50 159.43 477.18 161.24 C 483.63 158.34 489.71 154.14 496.89 153.30 C 506.09 153.12 515.69 155.34 522.94 161.26 C 532.37 167.52 538.61 177.17 544.81 186.38 C 547.63 190.42 545.62 195.47 544.71 199.80 C 543.48 204.18 538.92 206.01 534.89 206.90 C 524.99 210.91 514.04 211.23 503.53 210.29 C 486.90 208.95 472.02 195.77 468.34 179.56 C 464.34 176.26 459.35 174.42 454.96 171.71 C 456.94 175.91 458.07 180.52 458.36 185.15 C 458.88 196.20 454.82 206.74 450.92 216.88 C 449.48 220.45 448.30 224.71 444.51 226.50 C 439.62 229.07 434.25 226.28 429.71 224.26 C 420.87 216.91 416.31 205.82 412.95 195.11 C 408.94 182.22 412.58 167.81 421.27 157.66 C 415.68 154.05 409.96 150.64 404.67 146.59 C 404.69 150.12 405.63 153.85 404.21 157.24 C 400.62 167.29 395.54 176.74 389.73 185.66 C 385.48 192.34 379.18 197.24 373.30 202.39 C 369.72 205.56 364.52 204.35 360.17 204.36 C 354.72 203.67 352.61 198.01 350.39 193.79 C 349.11 188.23 348.67 182.50 347.68 176.88 C 346.79 172.04 346.33 167.00 347.45 162.16 C 349.81 155.17 352.41 148.25 355.61 141.59 C 360.58 132.05 370.22 125.14 380.71 123.01 C 378.80 120.46 376.89 117.91 374.98 115.36 C 362.90 118.87 351.40 124.03 339.76 128.75 C 319.68 136.88 300.68 147.43 282.26 158.78 C 294.72 160.81 306.95 165.38 317.30 172.70 C 323.46 178.46 328.74 186.37 328.71 195.06 C 327.32 199.58 326.24 205.27 321.42 207.39 C 313.51 209.83 305.35 211.62 297.02 211.43 C 288.61 211.83 280.83 208.26 272.90 206.04 C 266.92 204.28 261.19 201.43 257.00 196.70 C 259.49 200.99 263.24 205.47 262.38 210.76 C 260.97 223.63 259.93 236.87 254.81 248.91 C 252.17 252.74 249.39 257.86 244.09 258.02 C 239.15 258.73 235.49 254.81 232.00 252.00 C 229.25 248.80 226.36 245.71 223.77 242.39 C 219.83 232.85 216.82 222.92 214.73 212.81 C 201.95 225.72 189.64 239.11 178.66 253.61 C 158.62 279.41 142.14 307.85 128.67 337.59 C 133.81 337.75 138.95 337.95 144.09 337.90 C 152.02 336.23 159.73 333.58 167.52 331.33 C 163.93 324.14 162.17 316.03 162.98 307.99 C 163.79 292.77 173.07 278.96 185.33 270.33 C 188.57 267.44 193.57 266.36 197.44 268.68 C 200.76 270.71 205.05 272.35 206.24 276.47 C 208.39 285.12 208.41 294.10 209.58 302.91 C 210.05 305.52 209.50 308.13 208.67 310.61 C 212.46 308.63 216.40 306.96 220.41 305.47 C 221.17 298.46 222.74 291.40 226.23 285.22 C 229.98 280.29 234.62 276.02 240.07 273.04 C 250.14 268.01 261.85 266.44 272.97 267.89 C 276.49 268.21 280.06 267.98 283.56 268.52 C 288.01 269.55 290.08 274.05 292.62 277.38 C 295.83 282.89 291.63 288.66 290.06 293.97 C 286.50 302.14 280.93 309.31 274.76 315.68 C 265.76 325.06 251.91 329.37 239.16 327.00 C 235.62 326.40 231.92 325.93 228.96 323.72 C 223.85 324.89 219.35 327.61 214.52 329.53 C 226.77 332.15 235.49 342.05 242.13 352.03 C 244.50 356.54 247.62 360.63 249.71 365.30 C 251.68 369.00 251.02 373.98 247.99 376.92 C 243.91 380.02 239.28 382.84 233.95 382.58 C 220.77 382.79 207.63 378.58 196.65 371.34 C 189.56 364.89 184.26 356.41 182.53 346.90 C 176.09 348.91 169.86 351.55 163.30 353.16 C 166.09 355.48 169.79 356.97 171.51 360.34 C 177.91 371.32 183.72 382.90 186.27 395.43 C 187.01 401.58 187.78 407.79 187.42 414.00 C 187.34 417.55 184.32 419.87 182.28 422.43 C 180.33 424.94 177.23 426.65 173.98 426.24 C 170.20 425.63 166.14 425.35 162.92 423.09 C 155.41 418.35 146.85 414.93 140.65 408.38 C 134.99 400.30 129.69 391.77 126.84 382.24 C 125.32 373.89 125.76 364.86 130.08 357.36 C 126.98 357.11 123.89 356.81 120.79 356.66 C 113.92 375.01 108.94 394.01 104.06 412.97 C 100.51 427.21 98.61 441.81 96.71 456.35 C 106.36 447.92 117.48 440.70 130.08 437.69 C 134.97 437.08 140.01 437.14 144.83 438.21 C 148.62 439.75 153.35 440.59 155.42 444.55 C 156.90 447.26 159.13 449.80 159.27 453.02 C 159.67 456.65 157.48 459.79 156.14 462.98 C 154.03 467.75 151.01 472.01 148.19 476.37 C 143.27 483.46 135.63 487.76 128.77 492.69 C 125.38 494.61 122.02 496.58 118.56 498.36 C 115.41 499.40 112.01 499.13 108.74 499.37 C 113.24 499.62 117.65 500.75 121.92 502.12 C 124.78 503.78 127.12 506.19 129.45 508.51 C 135.88 515.65 143.04 522.25 148.04 530.54 C 150.44 533.85 151.33 537.92 151.99 541.88 C 152.51 545.62 150.41 549.34 147.23 551.24 C 140.58 554.20 133.15 553.99 126.03 554.20 C 121.93 553.46 118.06 551.87 114.15 550.50 C 108.13 548.20 101.99 546.04 96.55 542.53 C 97.80 553.08 98.56 563.72 100.88 574.12 C 105.01 595.52 110.36 616.73 117.84 637.21 C 123.45 654.96 131.92 671.61 140.34 688.15 C 144.37 683.55 148.62 679.04 151.78 673.79 C 154.75 667.17 157.46 660.44 160.01 653.66 C 148.90 651.42 138.99 644.63 132.35 635.51 C 125.38 624.80 122.35 611.69 123.62 598.99 C 123.92 595.36 126.78 592.30 130.17 591.22 C 133.58 590.01 137.17 588.11 140.87 589.29 C 149.66 592.86 157.15 598.79 165.08 603.84 C 166.88 605.00 168.09 606.81 169.42 608.46 C 170.68 604.45 171.63 600.35 172.57 596.26 C 168.19 591.01 163.22 586.04 160.49 579.67 C 159.56 575.53 159.15 571.26 159.06 567.02 C 159.26 555.76 164.54 545.17 171.65 536.66 C 175.58 532.66 178.74 527.94 183.01 524.27 C 186.58 521.21 191.62 522.41 195.91 522.36 C 201.22 522.82 203.27 528.25 205.66 532.19 C 209.76 538.52 211.88 545.86 213.53 553.15 C 216.19 563.84 215.24 575.87 209.24 585.30 C 205.28 592.13 199.33 597.89 192.16 601.25 C 189.98 605.86 189.65 611.09 187.84 615.85 C 196.89 608.02 209.74 607.44 221.12 608.29 C 226.70 609.06 232.35 609.45 237.86 610.69 C 242.64 611.36 246.42 616.23 245.70 621.04 C 245.42 623.60 245.12 626.17 244.52 628.68 C 242.00 634.36 237.55 638.89 232.82 642.81 C 227.30 647.65 220.96 651.52 214.14 654.22 C 208.79 656.64 202.75 656.46 197.00 656.48 C 191.64 655.98 186.62 653.79 181.65 651.88 C 179.03 658.07 177.40 664.65 174.46 670.71 C 177.28 669.94 180.02 668.57 182.99 668.49 C 196.22 669.86 209.30 673.17 221.46 678.62 C 226.53 681.29 230.86 685.11 235.62 688.29 C 239.92 690.95 240.00 696.49 240.74 700.95 C 241.52 706.77 236.00 710.13 231.98 713.10 C 225.60 716.35 218.67 718.36 212.03 721.00 C 204.53 723.87 196.49 722.17 188.82 721.16 C 182.08 719.48 174.66 718.61 169.28 713.80 C 163.83 710.33 159.44 705.30 157.00 699.29 C 154.74 701.73 152.44 704.14 150.44 706.80 C 154.97 714.75 159.54 722.70 164.88 730.14 C 173.70 742.22 182.47 754.37 192.40 765.58 C 199.42 773.49 205.91 781.92 213.84 788.96 C 212.79 777.18 214.16 765.20 217.83 753.96 C 220.94 744.88 228.07 737.24 237.09 733.89 C 242.16 733.94 248.65 733.27 252.10 737.84 C 256.00 743.70 258.46 750.38 260.67 757.03 C 264.08 767.02 262.53 777.74 261.52 788.00 C 261.01 793.08 259.97 798.26 256.59 802.27 C 259.49 800.01 262.26 797.50 265.46 795.66 C 269.18 794.70 273.06 794.44 276.85 793.78 C 286.94 793.06 297.21 791.79 307.24 793.79 C 311.99 795.41 318.00 797.41 319.09 803.04 C 320.09 810.05 315.15 816.03 311.32 821.39 C 307.28 827.88 299.77 830.67 293.64 834.72 C 288.69 837.10 284.03 840.44 278.47 841.25 C 289.56 848.99 301.78 854.85 313.65 861.26 C 347.74 879.17 384.54 891.66 422.25 899.29 C 421.34 892.77 420.40 886.16 418.03 879.98 C 415.01 873.16 410.84 866.93 407.40 860.33 C 400.35 866.43 391.28 869.86 382.04 870.66 C 369.64 871.53 357.19 867.12 347.38 859.66 C 343.56 856.44 338.48 852.76 339.52 847.03 C 340.68 842.66 341.35 837.19 345.78 834.84 C 351.00 832.27 356.52 830.36 362.01 828.46 C 367.34 827.51 372.19 824.39 377.76 824.90 C 375.23 821.59 373.01 818.04 370.31 814.86 C 365.27 815.05 360.18 815.67 355.17 814.86 C 343.78 813.29 334.40 804.82 329.17 794.92 C 323.24 785.65 322.77 774.37 320.64 763.89 C 319.31 758.23 324.06 754.10 327.41 750.32 C 331.13 746.87 336.41 748.73 340.84 749.21 C 349.81 749.82 358.01 753.95 365.90 757.95 C 376.45 763.17 383.53 773.77 386.55 784.92 C 387.16 790.66 388.05 796.71 386.20 802.31 C 388.71 807.06 392.45 810.98 395.35 815.49 C 394.52 806.95 398.59 799.11 403.26 792.30 C 408.71 785.15 415.49 779.19 421.97 773.01 C 424.90 770.02 429.85 769.72 433.46 771.58 C 435.62 772.98 437.17 775.12 438.99 776.93 C 441.57 779.30 442.15 782.91 443.08 786.13 C 445.18 798.29 444.53 810.99 440.31 822.64 C 438.85 825.59 436.65 828.09 434.73 830.75 C 430.86 836.17 424.97 839.64 419.19 842.69 C 422.92 848.29 426.99 853.80 429.53 860.08 C 430.68 857.39 431.48 854.52 433.05 852.05 C 437.04 847.40 442.04 843.78 446.67 839.82 C 454.34 834.43 461.88 828.18 471.24 826.06 C 476.37 824.74 481.56 822.08 486.96 823.00 C 491.22 824.93 496.65 826.56 498.31 831.49 C 500.50 840.56 496.11 849.09 493.74 857.63 C 492.57 862.07 490.92 866.49 488.22 870.25 C 481.04 877.08 474.25 884.61 465.32 889.23 C 457.55 891.90 448.90 893.92 440.88 891.11 C 441.55 894.88 441.80 898.78 443.45 902.30 C 477.94 906.63 512.97 908.07 547.53 903.69 C 537.25 896.44 527.94 887.64 521.21 876.96 C 516.44 869.40 516.00 860.02 517.66 851.45 C 518.50 848.42 521.33 846.63 523.31 844.39 C 525.23 842.18 528.06 840.68 531.06 840.99 C 539.36 841.97 547.31 844.76 554.97 847.99 C 562.03 851.18 567.18 857.12 573.00 862.02 C 577.20 866.55 582.05 870.98 583.63 877.20 C 583.98 873.51 583.42 869.75 584.11 866.11 C 586.78 860.37 590.67 855.29 594.18 850.04 C 597.28 845.07 601.13 840.61 604.98 836.21 C 607.52 833.17 610.92 831.12 614.43 829.38 C 618.67 826.93 624.80 828.26 627.35 832.54 C 630.94 838.41 632.68 845.20 633.97 851.89 C 632.96 863.57 632.19 875.70 627.37 886.55 C 638.30 883.34 648.70 878.64 659.09 874.04 C 674.27 867.22 689.16 859.76 703.67 851.61 C 714.19 845.68 724.71 839.67 734.37 832.40 C 744.34 824.80 754.36 817.25 763.88 809.09 C 756.87 805.74 750.36 801.02 742.70 799.24 C 736.21 798.26 729.81 796.76 723.28 796.11 C 723.33 810.09 717.07 824.31 705.61 832.59 C 697.80 838.98 687.95 842.39 678.04 843.72 C 674.64 844.17 671.13 842.50 669.29 839.63 C 667.27 836.36 664.16 833.15 664.75 828.99 C 666.39 819.50 670.56 810.72 673.75 801.69 C 674.45 799.87 675.90 798.51 677.13 797.05 C 673.03 796.78 668.92 796.55 664.81 796.44 C 660.78 802.09 656.54 807.75 650.97 812.00 C 635.67 820.57 616.14 817.58 601.97 808.15 C 598.53 806.24 594.88 804.66 591.72 802.30 C 588.77 799.94 588.48 795.91 587.51 792.53 C 586.57 788.98 587.66 784.96 590.58 782.65 C 593.31 780.37 595.62 777.65 598.30 775.32 C 609.32 767.60 622.11 760.46 636.03 761.40 C 647.17 762.46 658.34 767.53 665.22 776.57 C 670.08 777.20 675.02 777.23 679.92 777.22 C 677.24 774.90 674.88 772.23 672.90 769.30 C 666.34 759.50 665.42 747.33 664.38 735.91 C 664.21 731.66 662.96 726.64 666.22 723.19 C 669.49 719.01 675.30 719.61 680.01 719.27 C 687.40 720.57 693.46 725.31 699.30 729.73 C 704.88 734.52 709.99 740.03 713.77 746.37 C 718.32 755.39 719.12 765.97 716.55 775.70 C 723.21 776.48 729.95 776.74 736.51 778.29 C 735.24 775.88 733.76 773.55 732.87 770.97 C 731.12 759.79 731.76 748.39 732.77 737.17 C 734.07 728.78 737.20 720.76 741.22 713.32 C 742.81 710.35 746.21 709.31 749.00 707.82 C 751.89 706.17 755.60 705.91 758.60 707.44 C 762.54 710.10 766.31 713.19 768.66 717.42 C 773.79 725.54 781.06 733.21 781.67 743.27 C 782.49 749.48 782.95 755.75 782.65 762.02 C 781.82 772.46 777.18 783.02 768.34 789.08 C 772.04 791.18 775.72 793.37 779.81 794.67 C 787.00 787.91 794.21 781.12 800.59 773.56 C 806.68 766.35 812.97 759.30 818.97 752.01 C 828.72 739.80 836.95 726.48 845.21 713.25 C 834.78 716.23 824.01 718.29 813.11 717.73 C 801.94 718.26 790.99 712.50 784.60 703.44 C 783.23 700.88 783.46 697.85 783.10 695.07 C 782.74 692.29 783.21 689.23 785.28 687.20 C 789.89 682.77 795.06 678.93 800.57 675.68 C 810.55 669.48 822.56 668.38 833.95 667.05 C 838.50 666.55 843.05 667.31 847.30 668.96 C 843.90 667.09 840.87 664.56 838.29 661.69 C 835.28 656.34 833.89 650.29 831.72 644.59 C 829.39 634.91 825.79 624.91 828.13 614.88 C 828.62 610.52 832.65 606.89 837.02 606.72 C 844.35 606.91 851.10 610.14 857.52 613.41 C 862.42 616.77 866.13 621.49 870.22 625.74 C 874.32 630.08 877.80 634.95 880.88 640.07 C 892.69 609.20 899.12 576.55 903.44 543.87 C 906.30 524.52 905.36 504.89 904.82 485.41 C 899.29 488.62 892.92 490.07 887.50 493.43 C 881.43 498.42 875.52 503.63 869.81 509.04 C 881.78 517.88 888.73 533.01 887.32 547.87 C 887.06 557.43 883.44 566.49 878.66 574.64 C 876.65 577.25 873.24 578.66 869.97 578.20 C 866.21 577.75 861.74 578.17 858.98 575.07 C 855.10 570.53 852.06 565.35 848.84 560.35 C 846.37 555.58 842.97 551.17 841.90 545.81 C 839.13 548.86 836.33 551.88 833.66 555.02 C 835.38 562.41 838.46 569.96 836.76 577.66 C 835.29 582.27 834.14 587.17 831.19 591.11 C 824.75 600.54 814.96 607.27 804.34 611.20 C 799.16 612.92 794.10 616.93 788.40 615.44 C 784.27 613.70 779.09 612.34 777.37 607.68 C 774.46 593.83 776.23 579.22 781.41 566.09 C 787.82 552.29 802.18 542.34 817.57 542.33 C 821.86 539.61 824.65 534.95 828.17 531.31 C 813.37 533.97 799.33 526.77 787.55 518.60 C 783.81 515.77 778.62 513.62 777.45 508.63 C 776.01 503.07 780.11 498.32 783.33 494.33 C 793.44 487.42 806.00 485.22 818.03 484.82 C 830.65 484.28 842.25 491.78 849.87 501.37 C 854.47 496.57 858.98 491.65 864.19 487.50 C 860.86 486.65 857.13 486.78 854.21 484.78 C 847.79 480.68 841.73 476.02 836.07 470.92 C 827.28 463.74 821.13 453.95 816.36 443.77 C 814.82 440.22 816.39 436.43 817.24 432.93 C 817.85 430.13 819.83 427.69 822.40 426.45 C 826.78 424.98 831.39 423.75 836.06 424.45 C 844.66 425.53 853.75 424.71 861.85 428.29 C 869.96 433.60 878.54 438.56 884.91 446.02 C 889.70 452.77 892.74 460.93 892.55 469.28 C 896.29 467.81 900.08 466.38 903.48 464.21 C 902.01 449.02 901.17 433.67 897.12 418.88 C 893.14 399.65 887.54 380.81 881.16 362.25 C 875.66 375.03 868.68 387.67 857.89 396.77 C 851.05 401.53 842.49 404.42 834.14 402.85 C 829.80 400.32 823.75 397.81 823.33 392.05 C 823.09 382.11 823.10 371.83 826.63 362.39 C 830.39 353.70 835.47 345.65 840.92 337.92 C 842.50 335.59 845.24 334.59 847.58 333.21 C 842.82 333.90 837.92 336.33 833.12 334.61 C 824.37 331.77 815.74 328.46 807.43 324.50 C 801.42 321.63 795.71 317.67 792.09 311.97 C 790.70 308.84 790.83 304.84 792.85 302.00 C 797.85 296.27 804.83 292.75 811.68 289.78 C 822.70 288.23 834.08 286.57 845.12 288.69 C 832.43 266.84 816.61 246.94 799.84 228.09 C 787.79 214.49 774.24 202.33 760.61 190.35 C 754.20 184.51 747.02 179.61 740.23 174.24 C 738.42 180.11 736.43 185.98 735.57 192.07 C 735.52 199.80 736.18 207.53 736.84 215.23 C 748.66 212.68 761.61 214.41 771.81 221.12 C 781.98 227.29 789.14 237.45 793.28 248.45 C 794.39 251.75 793.81 255.75 791.26 258.24 C 788.56 260.94 786.20 264.83 782.02 265.17 C 774.98 265.36 767.98 264.27 761.05 263.19 C 756.73 262.47 752.14 262.47 748.26 260.17 C 748.86 264.35 749.64 268.49 750.39 272.64 C 753.98 273.90 757.56 275.26 760.93 277.06 C 770.00 281.66 775.91 291.09 778.00 300.84 C 778.74 305.86 779.07 310.96 778.87 316.03 C 778.68 324.33 774.79 331.84 773.21 339.87 C 772.47 344.51 767.88 346.52 764.06 348.16 C 760.74 350.04 756.29 350.16 753.20 347.77 C 749.43 344.88 745.02 342.83 741.71 339.37 C 732.79 331.02 724.48 320.87 722.48 308.45 C 720.70 297.35 723.69 285.51 730.52 276.58 C 730.83 271.65 729.27 266.81 728.15 262.06 C 726.22 265.64 723.68 268.91 720.70 271.67 C 711.00 280.53 698.07 284.02 685.85 287.83 C 682.59 288.85 678.76 288.25 676.25 285.86 C 673.10 283.16 672.75 278.73 671.62 275.00 C 671.05 267.32 674.46 260.16 677.64 253.38 C 680.56 246.58 685.34 240.78 690.47 235.51 C 698.30 229.16 708.40 226.16 718.42 226.18 C 717.57 219.54 716.61 212.88 716.53 206.17 C 713.84 208.55 711.60 211.83 707.94 212.76 C 693.47 216.97 678.28 220.86 663.12 218.51 C 658.82 217.81 654.40 217.28 650.38 215.56 C 647.47 213.52 645.47 210.43 643.44 207.58 C 640.90 202.89 643.74 197.87 645.69 193.56 C 647.59 190.59 650.39 188.32 652.77 185.74 C 658.54 180.15 663.36 172.72 671.50 170.40 C 679.60 167.07 688.24 165.10 696.95 164.29 C 705.20 164.91 713.77 167.32 720.07 172.93 C 720.72 169.29 722.53 165.74 722.35 162.02 C 693.72 143.13 662.62 127.90 630.08 117.00 C 635.73 127.22 639.98 138.37 641.26 150.03 C 642.33 159.75 639.12 170.16 631.83 176.84 C 627.11 179.00 621.14 182.15 616.20 178.86 C 606.63 171.83 597.14 163.59 592.56 152.35 C 589.57 145.15 586.44 137.92 585.10 130.20 C 584.94 127.09 585.26 123.98 585.40 120.87 C 584.03 126.69 581.77 133.25 576.18 136.27 C 567.99 141.62 559.43 146.39 550.59 150.56 C 545.98 152.51 540.99 153.40 536.00 153.49 C 531.64 153.68 527.53 150.16 526.69 145.95 C 525.95 138.83 527.13 131.65 528.89 124.76 C 532.86 116.53 538.58 109.31 543.98 101.99 C 545.05 100.48 546.51 99.33 547.98 98.23 C 496.98 92.56 444.85 95.80 395.28 109.33 M 548.73 129.39 C 554.33 126.50 559.80 123.32 565.08 119.86 C 566.83 115.64 568.31 111.32 569.91 107.04 C 559.71 110.82 554.74 121.12 548.73 129.39 M 605.29 115.69 C 605.30 119.86 604.76 124.01 604.88 128.18 C 605.96 133.80 608.58 138.94 610.61 144.25 C 612.63 149.55 616.65 153.80 620.96 157.36 C 622.31 154.70 621.74 151.63 621.22 148.82 C 618.75 136.68 613.02 125.32 605.29 115.69 M 452.98 133.07 C 449.21 134.77 446.72 138.16 443.87 141.00 C 448.26 140.13 452.80 139.71 457.04 138.18 C 461.00 135.64 463.94 131.77 467.92 129.20 C 462.76 129.59 457.54 130.51 452.98 133.07 M 378.18 145.22 C 371.99 149.41 370.63 157.34 367.78 163.77 C 365.09 169.19 367.61 175.14 368.30 180.73 C 375.20 173.36 379.75 164.13 383.91 155.03 C 386.22 151.04 384.48 146.54 384.14 142.31 C 382.08 143.12 379.97 143.88 378.18 145.22 M 488.25 177.90 C 491.49 184.13 497.26 189.65 504.47 190.55 C 510.66 191.42 516.96 191.16 523.12 190.09 C 517.92 181.63 509.60 173.10 499.01 173.03 C 495.13 173.87 491.81 176.24 488.25 177.90 M 431.17 186.21 C 431.77 189.85 433.06 193.33 434.41 196.75 C 434.71 197.88 435.62 198.58 436.50 199.26 C 437.52 194.87 438.95 190.46 438.71 185.91 C 438.55 181.67 435.53 178.40 433.01 175.30 C 431.74 178.77 430.50 182.46 431.17 186.21 M 264.49 176.96 C 268.04 179.54 270.72 183.16 274.41 185.54 C 279.36 187.61 284.63 188.81 289.69 190.57 C 295.32 192.58 301.44 191.73 307.20 190.83 C 305.97 189.35 304.71 187.84 302.99 186.92 C 291.46 179.91 277.88 177.08 264.49 176.96 M 676.67 189.72 C 673.12 192.42 670.40 196.04 667.44 199.33 C 678.65 200.51 689.60 197.26 700.34 194.51 C 702.60 192.16 704.82 189.78 706.96 187.31 C 703.53 185.75 699.94 183.90 696.06 184.17 C 689.38 185.10 682.81 186.91 676.67 189.72 M 235.42 199.77 C 232.35 210.06 236.97 220.53 240.28 230.18 C 240.72 223.73 242.28 217.40 242.51 210.92 C 240.41 207.04 238.20 203.20 235.42 199.77 M 745.12 233.50 C 748.67 236.36 752.01 239.51 755.74 242.15 C 760.04 243.64 764.72 243.60 769.17 244.54 C 765.66 241.07 761.94 237.63 757.30 235.76 C 753.47 234.01 749.23 233.90 745.12 233.50 M 702.55 251.52 C 699.27 255.23 695.94 259.24 694.84 264.20 C 699.91 262.19 704.99 259.66 708.77 255.63 C 710.57 252.80 711.18 249.40 712.17 246.23 C 708.84 247.71 705.01 248.66 702.55 251.52 M 242.99 295.94 C 241.10 299.44 240.45 303.47 240.12 307.40 C 245.54 308.33 251.34 308.15 256.18 305.27 C 262.95 301.10 267.22 294.04 271.53 287.56 C 261.57 286.18 249.63 287.50 242.99 295.94 M 744.17 291.51 C 742.21 296.27 740.74 301.61 742.27 306.71 C 744.44 314.67 750.80 320.36 756.23 326.20 C 757.67 322.27 759.32 318.29 759.24 314.02 C 759.17 308.88 759.35 303.25 756.17 298.90 C 753.75 294.47 748.60 293.03 744.17 291.51 M 182.70 308.12 C 182.13 311.85 182.75 315.62 183.58 319.26 C 185.66 314.78 188.44 310.57 189.80 305.80 C 190.03 301.74 189.18 297.69 188.73 293.67 C 186.11 298.17 183.16 302.81 182.70 308.12 M 818.53 308.21 C 824.91 310.42 831.12 313.08 837.47 315.37 C 841.68 313.97 845.85 312.44 849.95 310.74 C 840.43 305.15 828.93 308.14 818.53 308.21 M 855.68 351.38 C 852.02 356.34 849.00 361.76 846.13 367.20 C 843.60 371.88 843.20 377.30 842.95 382.52 C 849.68 379.32 853.48 372.36 857.21 366.24 C 861.55 359.41 863.61 351.53 865.89 343.86 C 862.65 346.59 859.09 348.89 855.68 351.38 M 203.34 348.60 C 205.21 351.03 206.77 353.79 209.15 355.78 C 214.07 358.76 219.45 361.20 225.21 361.93 C 221.80 357.98 218.94 353.37 214.41 350.58 C 211.17 348.39 207.03 348.99 203.34 348.60 M 147.32 366.38 C 145.99 370.03 145.02 374.05 146.22 377.87 C 148.27 383.94 151.67 389.43 155.26 394.69 C 158.35 398.96 164.25 399.71 167.57 403.71 C 166.28 392.14 160.83 381.59 155.18 371.61 C 152.52 369.93 149.91 368.17 147.32 366.38 M 838.90 444.53 C 844.80 453.39 853.32 459.99 861.84 466.18 C 864.97 468.70 869.32 467.89 873.05 468.52 C 872.50 463.84 870.71 459.06 867.02 455.95 C 862.66 452.21 857.75 449.16 852.90 446.12 C 848.46 444.44 843.53 445.08 838.90 444.53 M 109.40 471.31 C 105.93 474.67 102.85 478.41 99.60 481.99 C 103.51 480.30 107.87 480.61 111.91 479.46 C 117.35 476.90 122.03 473.07 127.04 469.79 C 131.65 466.63 134.26 461.54 137.05 456.87 C 126.29 457.68 117.60 464.98 109.40 471.31 M 804.74 506.49 C 809.13 508.43 813.41 510.83 818.15 511.87 C 822.34 512.91 826.25 510.56 829.91 508.86 C 826.60 506.80 823.10 504.45 819.05 504.49 C 814.22 504.56 809.33 504.89 804.74 506.49 M 99.63 518.29 C 100.27 519.35 100.88 520.44 101.63 521.43 C 108.31 528.03 117.57 530.53 126.07 533.86 C 121.66 529.21 117.35 524.46 112.90 519.85 C 108.46 519.42 104.07 518.67 99.63 518.29 M 860.98 527.62 C 860.69 532.02 860.39 536.49 860.91 540.89 C 862.51 544.84 864.83 548.46 867.03 552.10 C 869.00 543.58 867.40 533.92 860.98 527.62 M 179.32 573.03 C 181.09 576.43 184.06 579.02 186.42 582.01 C 191.10 577.96 194.94 572.41 195.21 566.04 C 195.57 558.85 192.71 552.06 190.76 545.28 C 183.34 552.23 176.75 562.43 179.32 573.03 M 800.82 571.82 C 796.86 578.41 796.38 586.25 795.26 593.66 C 800.06 591.53 805.06 589.60 809.09 586.12 C 813.61 582.80 816.93 577.74 817.51 572.11 C 817.06 568.68 815.89 565.41 814.97 562.10 C 809.24 563.47 804.04 566.84 800.82 571.82 M 143.83 613.41 C 145.09 616.67 146.24 619.99 147.92 623.07 C 150.73 627.84 155.47 631.05 160.35 633.43 C 158.08 629.30 157.00 624.55 154.30 620.69 C 150.97 618.05 147.27 615.90 143.83 613.41 M 202.38 629.71 C 199.96 631.60 198.04 634.07 196.10 636.43 C 204.93 638.53 213.26 633.48 219.67 627.95 C 213.91 627.59 207.74 627.14 202.38 629.71 M 848.35 631.25 C 850.19 637.51 852.41 643.63 854.35 649.87 C 857.90 652.71 861.95 654.81 865.93 656.99 C 864.17 646.26 855.16 639.00 848.35 631.25 M 811.38 692.28 C 809.34 693.52 806.85 694.47 805.84 696.82 C 806.94 697.16 808.08 697.46 809.23 697.73 C 823.01 699.35 837.03 696.12 849.35 689.92 C 844.18 689.02 839.30 685.90 833.92 686.85 C 826.28 687.87 818.24 688.40 811.38 692.28 M 175.02 691.50 C 179.45 700.28 190.14 701.64 198.87 702.63 C 205.08 703.97 210.51 699.86 216.30 698.39 C 206.56 692.89 195.48 690.12 184.48 688.53 C 181.18 688.75 178.20 690.64 175.02 691.50 M 754.15 731.08 C 753.70 735.10 752.08 738.90 751.97 742.97 C 751.60 750.27 751.03 757.62 751.93 764.91 C 752.87 767.98 755.24 770.34 757.02 772.96 C 764.48 766.88 763.34 756.32 762.44 747.81 C 762.45 741.17 757.09 736.55 754.15 731.08 M 684.90 743.67 C 685.60 748.33 686.51 753.08 688.69 757.30 C 690.67 761.20 694.86 763.07 698.61 764.85 C 698.07 761.05 697.53 757.01 695.12 753.89 C 692.12 750.11 688.90 746.42 684.90 743.67 M 234.78 766.72 C 232.14 777.78 232.98 789.34 235.37 800.36 C 237.21 796.31 239.97 792.72 241.59 788.58 C 242.44 782.71 242.95 776.77 243.10 770.83 C 243.29 765.49 241.00 760.53 239.06 755.69 C 236.87 759.02 235.44 762.78 234.78 766.72 M 341.86 769.04 C 342.28 778.02 345.72 787.51 353.01 793.13 C 357.16 796.60 362.84 795.48 367.80 795.26 C 367.96 788.20 364.68 781.17 359.08 776.86 C 353.71 773.53 347.79 771.17 341.86 769.04 M 610.95 790.36 C 618.99 796.17 630.10 799.78 639.63 795.55 C 642.97 793.20 645.24 789.67 647.62 786.41 C 643.14 783.01 637.55 780.83 631.88 781.02 C 624.11 782.00 617.55 786.55 610.95 790.36 M 415.10 812.12 C 415.00 815.35 415.78 818.51 416.37 821.67 C 418.57 819.13 421.12 816.73 422.50 813.62 C 424.08 808.49 424.82 803.09 424.57 797.72 C 420.69 801.97 416.76 806.51 415.10 812.12 M 692.32 809.35 C 690.42 812.88 689.20 816.76 687.96 820.58 C 695.69 816.72 701.98 809.58 703.15 800.82 C 699.30 803.33 695.61 806.15 692.32 809.35 M 273.35 814.10 C 269.94 816.98 266.92 820.28 264.13 823.76 C 275.04 824.22 283.88 816.99 293.06 812.25 C 286.48 812.86 279.88 813.13 273.35 814.10 M 366.03 847.93 C 374.18 852.25 384.05 851.91 392.09 847.50 C 387.31 846.80 382.78 844.74 377.95 844.48 C 373.95 845.53 370.03 846.87 366.03 847.93 M 452.05 861.03 C 448.10 863.59 447.91 868.70 446.24 872.68 C 448.34 872.67 450.47 872.84 452.56 872.42 C 460.94 870.92 466.27 863.54 472.23 858.16 C 474.89 854.21 475.34 849.20 476.93 844.76 C 467.40 847.94 459.77 854.86 452.05 861.03 M 603.38 871.88 C 603.52 876.39 604.30 880.85 604.95 885.32 C 612.25 877.35 612.58 865.87 614.09 855.74 C 610.64 861.20 606.80 866.40 603.38 871.88 M 536.21 862.21 C 537.02 864.17 537.73 866.24 538.95 868.03 C 543.18 873.73 547.82 879.19 553.56 883.43 C 558.22 887.55 564.00 889.98 569.19 893.31 C 566.53 889.16 566.15 883.85 562.84 880.10 C 559.54 876.12 555.36 873.02 551.68 869.43 C 547.48 865.34 541.56 864.07 536.21 862.21 Z"/><path fill="#000000" opacity="1.00" d=" M 509.28 101.34 C 515.06 98.44 522.96 102.43 523.48 109.02 C 524.48 114.61 519.75 120.39 514.03 120.29 C 508.81 120.78 503.76 116.26 503.72 111.01 C 503.28 107.00 505.71 103.07 509.28 101.34 Z"/><path fill="#000000" opacity="1.00" d=" M 654.37 143.60 C 660.66 140.82 668.64 146.11 668.05 153.07 C 668.42 160.65 658.84 165.56 652.73 161.31 C 646.00 157.44 647.01 146.14 654.37 143.60 Z"/><path fill="#000000" opacity="1.00" d=" M 322.46 149.64 C 328.39 147.00 336.10 151.39 336.27 158.01 C 337.06 163.77 331.78 169.38 325.96 168.79 C 320.81 168.88 316.23 164.09 316.45 158.96 C 316.22 154.96 318.86 151.20 322.46 149.64 Z"/><path fill="#000000" opacity="1.00" d=" M 574.22 167.41 C 580.19 164.69 587.99 169.25 588.03 175.92 C 588.73 181.56 583.60 186.95 577.95 186.55 C 571.98 186.78 567.05 180.67 568.32 174.87 C 568.74 171.55 571.20 168.70 574.22 167.41 Z"/><path fill="#000000" opacity="1.00" d=" M 393.54 205.75 C 395.68 205.32 397.89 205.22 400.09 205.26 C 404.74 205.25 408.96 209.37 409.20 213.99 C 409.87 221.74 409.00 229.52 407.87 237.18 C 407.46 239.95 405.85 242.33 404.86 244.90 C 403.62 247.52 403.01 250.68 400.53 252.47 C 398.40 254.10 396.33 255.85 393.96 257.12 C 390.75 258.47 387.21 257.34 383.92 256.96 C 380.04 256.65 376.49 253.72 375.59 249.92 C 374.49 245.07 373.66 240.03 374.21 235.06 C 376.43 227.16 378.94 218.88 384.81 212.84 C 387.43 210.22 389.72 206.67 393.54 205.75 Z"/><path fill="#000000" opacity="1.00" d=" M 599.46 206.67 C 609.31 205.05 619.90 206.38 628.58 211.47 C 633.82 214.62 635.41 222.56 631.03 227.07 C 625.87 231.61 619.42 234.93 612.50 235.47 C 606.31 235.97 599.91 237.41 593.85 235.39 C 590.09 234.89 586.40 232.55 585.29 228.77 C 583.97 224.21 581.96 218.64 585.45 214.51 C 589.32 210.72 594.09 207.75 599.46 206.67 Z"/><path fill="#000000" opacity="1.00" d=" M 355.19 218.19 C 358.91 217.35 363.07 218.50 365.42 221.61 C 367.99 224.42 367.54 228.44 367.34 231.93 C 367.02 238.13 364.31 243.85 360.84 248.87 C 357.60 254.77 353.10 260.19 346.91 263.09 C 342.10 264.71 337.52 261.82 333.37 259.76 C 328.08 256.42 329.06 249.41 329.53 244.10 C 333.41 232.15 343.14 221.97 355.19 218.19 Z"/><path fill="#000000" opacity="1.00" d=" M 292.44 226.49 C 298.89 224.47 306.05 230.33 305.02 237.09 C 304.81 244.72 294.69 248.87 288.98 244.02 C 282.56 239.51 284.73 228.18 292.44 226.49 Z"/><path fill="#000000" opacity="1.00" d=" M 643.47 232.62 C 648.90 231.32 654.56 232.12 659.98 233.06 C 662.91 233.57 664.90 236.05 666.89 238.06 C 670.49 241.65 670.53 248.29 666.75 251.76 C 661.04 257.61 653.93 261.80 646.94 265.91 C 642.38 267.31 637.70 268.70 632.96 269.27 C 628.40 268.41 622.59 268.49 619.90 263.98 C 617.74 259.81 614.55 255.23 616.50 250.33 C 619.12 245.28 623.21 241.08 627.99 238.00 C 632.90 235.59 638.16 233.92 643.47 232.62 Z"/><path fill="#000000" opacity="1.00" d=" M 199.26 236.14 C 205.75 233.18 214.03 238.91 213.02 246.12 C 213.00 253.60 203.31 258.03 197.44 253.60 C 191.02 249.61 192.14 238.73 199.26 236.14 Z"/><path fill="#000000" opacity="1.00" d=" M 423.24 236.28 C 426.61 235.45 430.35 235.35 433.67 236.45 C 436.45 238.20 439.06 240.33 441.36 242.68 C 446.21 249.47 450.06 257.05 452.08 265.17 C 452.49 268.06 451.88 270.99 451.62 273.88 C 451.19 277.83 447.85 281.10 444.00 281.82 C 439.74 283.00 434.55 284.55 430.78 281.30 C 421.44 271.72 417.48 258.09 417.00 244.98 C 416.95 241.13 419.76 237.66 423.24 236.28 Z"/><path fill="#000000" opacity="1.00" d=" M 586.25 241.20 C 592.21 238.93 599.58 243.53 599.53 250.06 C 600.18 255.79 594.80 261.17 589.07 260.53 C 583.67 260.55 579.07 255.27 579.72 249.92 C 579.77 246.01 582.64 242.49 586.25 241.20 Z"/><path fill="#000000" opacity="1.00" d=" M 810.31 259.46 C 815.91 257.86 822.33 262.00 822.75 267.90 C 823.70 273.56 818.79 279.28 813.03 279.05 C 807.58 279.44 802.56 274.41 802.95 268.97 C 802.81 264.60 806.09 260.48 810.31 259.46 Z"/><path fill="#000000" opacity="1.00" d=" M 356.22 264.15 C 362.71 261.17 371.02 266.89 370.03 274.10 C 370.01 281.61 360.28 286.04 354.41 281.58 C 348.03 277.58 349.15 266.76 356.22 264.15 Z"/><path fill="#000000" opacity="1.00" d=" M 402.38 268.51 C 408.83 266.44 416.03 272.30 415.02 279.07 C 414.83 286.74 404.63 290.90 398.92 285.97 C 392.59 281.45 394.74 270.24 402.38 268.51 Z"/><path fill="#000000" opacity="1.00" d=" M 648.38 276.41 C 655.15 272.94 662.51 278.72 664.55 285.11 C 664.77 289.48 665.00 294.11 663.25 298.23 C 660.50 305.35 657.60 312.66 652.40 318.38 C 648.16 321.72 642.68 325.72 637.10 322.92 C 633.04 319.89 627.34 316.82 627.46 311.00 C 628.25 301.60 633.24 293.20 638.73 285.77 C 641.87 282.59 644.67 278.94 648.38 276.41 Z"/><path fill="#000000" opacity="1.00" d=" M 610.33 279.50 C 616.20 277.15 623.59 281.54 623.77 287.97 C 624.54 293.53 619.66 299.04 614.03 298.80 C 608.67 299.19 603.70 294.31 603.95 288.95 C 603.71 284.83 606.51 280.91 610.33 279.50 Z"/><path fill="#000000" opacity="1.00" d=" M 797.38 351.59 C 803.64 348.84 811.58 354.07 811.05 360.99 C 811.49 368.60 801.86 373.58 795.73 369.30 C 789.00 365.43 790.01 354.13 797.38 351.59 Z"/><path fill="#000000" opacity="1.00" d=" M 253.40 385.64 C 263.62 383.21 274.31 385.58 283.93 389.30 C 287.19 390.24 289.29 393.07 291.73 395.23 C 295.23 398.15 295.68 403.58 293.49 407.41 C 291.76 411.02 289.92 415.33 285.64 416.41 C 274.63 417.98 263.38 414.64 254.06 408.80 C 251.11 406.93 247.43 405.63 245.77 402.31 C 242.51 396.02 247.21 387.89 253.40 385.64 Z"/><path fill="#000000" opacity="1.00" d=" M 210.43 390.63 C 213.58 389.71 217.11 390.18 219.73 392.22 C 225.53 395.53 229.73 400.83 234.58 405.29 C 237.43 407.67 238.81 411.18 240.55 414.36 C 241.92 417.06 243.77 419.77 243.50 422.96 C 243.42 426.71 244.19 431.24 241.13 434.10 C 237.72 437.34 234.23 441.90 228.89 441.02 C 224.06 440.07 219.71 437.23 216.00 434.07 C 210.58 429.49 207.39 423.01 204.36 416.75 C 203.10 413.03 202.62 409.08 202.19 405.19 C 200.92 399.23 205.02 392.90 210.43 390.63 Z"/><path fill="#000000" opacity="1.00" d=" M 773.39 390.57 C 777.55 389.51 781.74 391.34 785.71 392.43 C 795.59 397.99 802.27 408.23 804.95 419.10 C 805.60 422.77 805.70 427.13 803.01 430.07 C 800.89 432.71 797.35 433.99 794.03 433.44 C 788.69 432.38 783.57 430.13 779.28 426.79 C 772.74 420.61 765.16 414.24 763.47 404.93 C 762.83 400.68 765.94 397.45 768.29 394.36 C 769.56 392.62 771.27 391.13 773.39 390.57 Z"/><path fill="#000000" opacity="1.00" d=" M 865.28 399.34 C 871.04 396.44 878.93 400.41 879.48 406.98 C 880.51 412.62 875.72 418.45 869.95 418.29 C 864.75 418.73 859.75 414.22 859.72 409.00 C 859.28 404.99 861.71 401.07 865.28 399.34 Z"/><path fill="#000000" opacity="1.00" d=" M 747.32 406.42 C 753.17 404.24 760.30 408.64 760.52 414.97 C 761.35 420.85 755.85 426.52 749.94 425.77 C 744.11 425.75 739.57 419.62 740.84 414.00 C 741.35 410.54 744.04 407.56 747.32 406.42 Z"/><path fill="#000000" opacity="1.00" d=" M 121.39 412.51 C 127.87 410.43 135.08 416.35 134.01 423.14 C 133.77 430.77 123.63 434.87 117.94 429.99 C 111.58 425.47 113.74 414.23 121.39 412.51 Z"/><path fill="#000000" opacity="1.00" d=" M 263.31 425.42 C 269.21 423.22 276.40 427.70 276.53 434.09 C 277.29 439.94 271.80 445.52 265.93 444.77 C 260.13 444.74 255.60 438.67 256.83 433.07 C 257.32 429.58 260.02 426.57 263.31 425.42 Z"/><path fill="#000000" opacity="1.00" d=" M 194.22 431.20 C 196.87 430.45 199.96 430.40 202.39 431.85 C 206.88 434.89 210.63 438.97 213.25 443.74 C 216.61 452.35 220.59 461.48 218.59 470.93 C 217.03 475.80 211.70 477.42 207.54 479.40 C 201.43 481.47 196.47 476.42 192.59 472.49 C 187.49 463.97 184.79 453.69 186.67 443.79 C 186.96 438.77 189.05 433.00 194.22 431.20 Z"/><path fill="#000000" opacity="1.00" d=" M 767.39 436.65 C 773.20 435.72 779.35 436.20 784.92 438.18 C 790.61 441.19 796.20 444.59 800.82 449.12 C 803.40 452.27 805.71 455.66 807.86 459.12 C 809.70 462.08 808.95 465.74 808.39 468.97 C 807.73 473.39 803.57 477.15 799.04 477.01 C 791.58 476.72 784.57 473.95 777.63 471.50 C 772.81 470.19 769.42 466.31 765.36 463.66 C 762.19 461.61 761.05 457.83 759.44 454.63 C 757.44 450.45 759.79 446.10 761.47 442.28 C 762.49 439.66 764.69 437.50 767.39 436.65 Z"/><path fill="#000000" opacity="1.00" d=" M 732.25 449.28 C 738.60 446.63 746.52 452.04 745.79 459.02 C 746.07 466.94 735.47 471.60 729.63 466.43 C 723.67 462.08 725.24 451.65 732.25 449.28 Z"/><path fill="#000000" opacity="1.00" d=" M 231.27 457.44 C 237.14 455.22 244.34 459.64 244.52 466.01 C 245.34 471.89 239.81 477.54 233.90 476.77 C 228.06 476.72 223.55 470.56 224.84 464.94 C 225.38 461.51 228.04 458.58 231.27 457.44 Z"/><path fill="#000000" opacity="1.00" d=" M 745.54 476.73 C 752.22 475.95 759.02 476.26 765.61 477.58 C 770.17 478.61 773.38 483.43 772.75 488.04 C 772.28 491.67 771.25 495.75 768.00 497.88 C 765.19 499.86 762.44 502.09 759.07 503.03 C 750.23 506.17 740.24 509.15 731.08 505.57 C 727.11 504.68 723.71 501.16 723.55 497.01 C 723.44 492.25 722.64 486.30 727.09 483.13 C 732.65 479.68 739.02 477.44 745.54 476.73 Z"/><path fill="#000000" opacity="1.00" d=" M 161.28 485.39 C 167.64 482.50 175.77 487.94 175.04 495.00 C 175.31 502.69 165.29 507.43 159.33 502.78 C 153.02 498.72 154.18 487.93 161.28 485.39 Z"/><path fill="#000000" opacity="1.00" d=" M 110.37 563.43 C 116.87 559.87 125.79 565.60 124.77 573.07 C 124.82 580.78 114.56 585.19 108.78 580.30 C 103.01 576.24 103.94 566.35 110.37 563.43 Z"/><path fill="#000000" opacity="1.00" d=" M 871.37 592.68 C 878.07 589.53 886.53 595.62 885.26 603.02 C 884.89 610.53 874.97 614.55 869.30 609.82 C 863.31 605.62 864.58 595.34 871.37 592.68 Z"/><path fill="#000000" opacity="1.00" d=" M 280.34 597.47 C 284.11 596.83 288.10 596.04 291.90 596.90 C 296.23 598.17 297.92 602.65 299.71 606.33 C 301.59 609.84 301.10 614.54 298.33 617.46 C 295.52 620.58 292.82 623.87 289.50 626.46 C 282.62 631.01 275.20 635.14 267.03 636.75 C 261.69 637.53 256.84 633.19 256.06 628.05 C 253.99 622.64 257.35 617.52 260.30 613.25 C 265.93 606.84 272.68 601.24 280.34 597.47 Z"/><path fill="#000000" opacity="1.00" d=" M 299.16 631.23 C 305.13 628.89 312.55 633.48 312.53 640.03 C 313.14 645.38 308.47 650.61 303.07 650.54 C 297.76 651.06 292.64 646.40 292.71 641.06 C 292.32 636.79 295.20 632.67 299.16 631.23 Z"/><path fill="#000000" opacity="1.00" d=" M 718.29 635.43 C 724.89 632.88 732.64 638.86 731.52 645.93 C 731.22 653.54 721.11 657.60 715.43 652.74 C 709.33 648.33 711.04 637.61 718.29 635.43 Z"/><path fill="#000000" opacity="1.00" d=" M 793.42 640.56 C 799.90 638.35 807.27 644.17 806.27 651.03 C 806.13 658.75 795.76 662.96 790.09 657.89 C 783.92 653.37 785.99 642.46 793.42 640.56 Z"/><path fill="#000000" opacity="1.00" d=" M 743.38 645.62 C 748.18 645.29 754.08 644.15 757.56 648.42 C 764.46 657.94 762.89 670.99 758.10 681.08 C 756.03 684.85 753.74 688.59 750.72 691.69 C 746.72 695.91 738.95 695.44 735.63 690.61 C 732.00 684.47 730.30 677.13 731.44 670.05 C 732.04 662.42 733.03 654.25 738.16 648.19 C 739.58 646.82 741.39 645.80 743.38 645.62 Z"/><path fill="#000000" opacity="1.00" d=" M 260.17 647.27 C 263.78 646.48 267.33 647.86 270.85 648.50 C 273.53 649.19 276.47 649.43 278.69 651.25 C 281.83 653.65 286.01 655.94 286.38 660.35 C 286.62 664.95 287.87 670.50 284.08 674.08 C 279.51 677.73 273.72 679.67 267.96 680.45 C 262.74 680.55 257.55 679.77 252.43 678.77 C 247.02 678.11 242.67 674.54 238.14 671.83 C 234.26 669.69 233.18 665.05 232.75 661.00 C 232.29 657.27 234.40 653.53 237.63 651.72 C 244.69 648.40 252.62 648.51 260.17 647.27 Z"/><path fill="#000000" opacity="1.00" d=" M 675.38 650.49 C 681.23 648.17 688.57 652.54 688.77 658.95 C 689.55 664.51 684.69 670.01 679.07 669.80 C 673.73 670.20 668.76 665.38 668.95 660.05 C 668.68 655.88 671.50 651.89 675.38 650.49 Z"/><path fill="#000000" opacity="1.00" d=" M 649.40 668.56 C 655.80 666.89 661.24 671.72 666.40 674.72 C 672.87 680.23 678.61 686.79 682.60 694.34 C 684.76 698.67 683.25 704.52 679.02 707.01 C 676.06 708.70 672.66 710.38 669.15 709.61 C 665.63 708.85 661.99 708.07 659.03 705.92 C 651.01 700.98 642.54 694.90 639.47 685.57 C 637.58 681.70 638.25 676.50 641.73 673.76 C 644.18 671.91 646.48 669.67 649.40 668.56 Z"/><path fill="#000000" opacity="1.00" d=" M 706.26 670.19 C 709.45 669.19 713.21 669.02 716.03 671.11 C 721.88 676.48 726.12 683.85 726.66 691.89 C 728.30 700.96 726.74 710.41 722.44 718.54 C 718.91 722.54 712.97 725.46 707.67 723.34 C 704.15 721.94 702.50 718.32 700.78 715.22 C 697.95 709.71 696.20 703.73 694.06 697.95 C 693.60 693.03 693.65 688.03 693.61 683.09 C 694.69 679.92 696.20 676.85 698.09 674.08 C 700.03 671.51 703.33 670.94 706.26 670.19 Z"/><path fill="#000000" opacity="1.00" d=" M 304.36 676.49 C 311.04 673.76 319.02 679.89 317.75 687.08 C 317.34 694.76 306.97 698.65 301.42 693.52 C 295.66 689.04 297.37 678.74 304.36 676.49 Z"/><path fill="#000000" opacity="1.00" d=" M 261.41 688.63 C 268.77 686.62 276.57 687.68 283.59 690.41 C 290.31 692.21 296.87 695.38 301.22 700.97 C 303.59 704.62 302.09 709.00 301.36 712.90 C 300.84 717.07 297.21 720.50 293.06 720.94 C 283.57 723.67 273.57 719.67 265.78 714.28 C 261.32 710.22 255.75 706.23 254.59 699.92 C 253.57 695.14 256.64 689.86 261.41 688.63 Z"/><path fill="#000000" opacity="1.00" d=" M 446.30 721.33 C 450.01 719.53 454.13 721.06 457.93 721.75 C 461.90 722.42 465.03 726.03 465.45 730.00 C 468.12 741.09 466.03 752.71 462.31 763.30 C 461.50 766.39 459.26 769.08 456.25 770.22 C 451.45 771.89 446.12 769.68 442.54 766.42 C 437.80 759.99 437.03 751.64 437.07 743.88 C 437.28 739.45 437.46 734.92 438.74 730.66 C 440.86 727.31 442.57 723.19 446.30 721.33 Z"/><path fill="#000000" opacity="1.00" d=" M 798.44 723.63 C 804.91 721.27 812.47 726.99 811.53 733.91 C 811.47 741.81 800.81 746.04 795.15 740.75 C 789.27 736.19 791.26 725.66 798.44 723.63 Z"/><path fill="#000000" opacity="1.00" d=" M 482.35 731.61 C 488.62 728.82 496.60 734.07 496.05 741.02 C 496.46 748.64 486.81 753.59 480.69 749.28 C 474.01 745.39 475.02 734.16 482.35 731.61 Z"/><path fill="#000000" opacity="1.00" d=" M 201.40 734.44 C 206.99 732.89 213.34 737.04 213.75 742.91 C 214.69 748.56 209.80 754.27 204.05 754.05 C 198.60 754.44 193.56 749.42 193.95 743.97 C 193.80 739.57 197.14 735.42 201.40 734.44 Z"/><path fill="#000000" opacity="1.00" d=" M 282.18 748.17 C 288.24 745.37 296.20 750.15 296.04 756.95 C 296.58 762.48 291.52 767.69 285.98 767.30 C 280.13 767.54 275.19 761.67 276.28 755.94 C 276.60 752.52 279.08 749.52 282.18 748.17 Z"/><path fill="#000000" opacity="1.00" d=" M 521.35 755.41 C 527.95 752.90 535.65 758.90 534.52 765.95 C 534.20 773.56 524.07 777.60 518.41 772.72 C 512.31 768.29 514.07 757.54 521.35 755.41 Z"/><path fill="#000000" opacity="1.00" d=" M 483.32 765.24 C 486.16 764.47 489.49 764.35 491.94 766.24 C 495.38 768.84 500.04 771.22 500.46 776.06 C 500.68 784.57 496.67 792.74 490.62 798.61 C 484.31 805.10 476.10 810.20 466.99 811.31 C 461.66 810.79 455.20 807.89 454.32 801.96 C 453.72 796.39 456.90 791.31 459.70 786.74 C 462.61 782.06 464.68 776.49 469.39 773.25 C 471.84 771.39 473.99 769.17 476.46 767.34 C 478.54 766.11 481.02 765.88 483.32 765.24 Z"/><path fill="#000000" opacity="1.00" d=" M 527.39 780.33 C 531.31 779.02 536.18 779.71 538.72 783.25 C 540.71 786.03 543.82 788.38 544.19 792.01 C 545.05 796.75 541.72 800.71 539.48 804.52 C 530.70 813.58 517.63 818.41 505.08 816.64 C 500.63 815.84 497.05 811.60 497.20 807.05 C 496.94 803.54 499.29 800.67 500.84 797.75 C 504.70 791.51 511.24 787.93 517.32 784.23 C 520.46 782.43 523.81 781.00 527.39 780.33 Z"/><path fill="#000000" opacity="1.00" d=" M 563.30 817.37 C 569.67 814.50 577.78 819.96 577.04 827.02 C 577.30 834.71 567.25 839.43 561.31 834.76 C 555.01 830.68 556.20 819.90 563.30 817.37 Z"/><path fill="#000000" opacity="1.00" d=" M 312.49 835.61 C 318.97 833.28 326.50 839.04 325.53 845.96 C 325.43 853.79 314.90 858.00 309.23 852.81 C 303.24 848.28 305.23 837.61 312.49 835.61 Z"/><path fill="#000000" opacity="1.00" d=" M 651.34 848.45 C 656.96 846.86 663.38 851.05 663.76 856.96 C 664.67 862.60 659.77 868.27 654.03 868.05 C 648.59 868.43 643.57 863.43 643.95 857.98 C 643.80 853.60 647.11 849.45 651.34 848.45 Z"/><path fill="#000000" opacity="1.00" d=" M 501.34 873.45 C 507.35 870.64 515.29 875.23 515.28 881.99 C 515.89 887.30 511.32 892.52 505.97 892.53 C 500.60 893.13 495.37 888.44 495.46 883.04 C 495.10 878.97 497.68 875.07 501.34 873.45 Z"/></svg>